PathFileType	4	(X/Y/Z)	C:\Users\Basilio\Documents\Thesis Gigler\squatting_fais\c3dfiles\076\SLS_front_pre1\markers_experimental.trc
DataRate	CameraRate	NumFrames	NumMarkers	Units	OrigDataRate	OrigDataStartFrame	OrigNumFrames
200.000000	200.000000	4	61	mm	200.000000	193	1548
Frame#	Time	FHD			LBHD			RBHD			C7			T10			CLAV			LSHO			LUUPA			LMUPA			LDUPA			LLEP			LMEP			LRAD			LUL			LRFIN			RSHO			RUPA1			RMUPA			RDUPA			RLEP			RMEP			RRAD			RUL			RUFIN			LASI			RASI			USACR			LSACR			RSACR			LTHI1			LTHI2			LTHI3			LTHI4			LLFC			LMFC			LTIB1			LTIB2			LTIB3			LTIB4			LLMAL			LMMAL			LHEE			LMT1			LMT2			LMT5			RTHI			RTHI2			RTHI3			RTHI4			RLFC			RMFC			RTIB1			RTIB2			RTIB3			RTIB4			RLMAL			RMMAL			RHEE			RMT1			RMT2			RMT5			
		X1	Y1	Z1	X2	Y2	Z2	X3	Y3	Z3	X4	Y4	Z4	X5	Y5	Z5	X6	Y6	Z6	X7	Y7	Z7	X8	Y8	Z8	X9	Y9	Z9	X10	Y10	Z10	X11	Y11	Z11	X12	Y12	Z12	X13	Y13	Z13	X14	Y14	Z14	X15	Y15	Z15	X16	Y16	Z16	X17	Y17	Z17	X18	Y18	Z18	X19	Y19	Z19	X20	Y20	Z20	X21	Y21	Z21	X22	Y22	Z22	X23	Y23	Z23	X24	Y24	Z24	X25	Y25	Z25	X26	Y26	Z26	X27	Y27	Z27	X28	Y28	Z28	X29	Y29	Z29	X30	Y30	Z30	X31	Y31	Z31	X32	Y32	Z32	X33	Y33	Z33	X34	Y34	Z34	X35	Y35	Z35	X36	Y36	Z36	X37	Y37	Z37	X38	Y38	Z38	X39	Y39	Z39	X40	Y40	Z40	X41	Y41	Z41	X42	Y42	Z42	X43	Y43	Z43	X44	Y44	Z44	X45	Y45	Z45	X46	Y46	Z46	X47	Y47	Z47	X48	Y48	Z48	X49	Y49	Z49	X50	Y50	Z50	X51	Y51	Z51	X52	Y52	Z52	X53	Y53	Z53	X54	Y54	Z54	X55	Y55	Z55	X56	Y56	Z56	X57	Y57	Z57	X58	Y58	Z58	X59	Y59	Z59	X60	Y60	Z60	X61	Y61	Z61	

194	0.965	-275.5215454101563	1638.07470703125	-1026.929443359375	-414.8666076660157	1565.064575195313	-1120.71337890625	-398.6608886718751	1569.36376953125	-969.7017822265627	-452.7674865722657	1439.544189453125	-1038.90869140625	-474.3185424804689	1123.838745117188	-1051.71240234375	-318.6667785644532	1370.646484375	-1048.688842773438	-384.5853881835939	1393.016845703125	-1205.92138671875	-240.051498413086	1346.641235351563	-1290.983154296875	-204.6026611328126	1365.523803710938	-1260.299560546875	-174.8673400878907	1341.8857421875	-1307.69287109375	-125.8388214111328	1324.136352539063	-1322.6337890625	-114.0865173339844	1263.620361328125	-1271.4375	124.1547012329102	1349.87451171875	-1296.131103515625	116.7055969238282	1348.597045898438	-1361.227416992188	209.0486450195313	1358.95947265625	-1305.382690429688	-362.9339904785157	1387.536499023438	-890.6182250976565	-220.3913116455079	1325.373168945313	-814.6380004882815	-190.7263641357422	1359.274780273438	-834.9912109375002	-150.4010772705078	1318.477905273438	-814.5356445312502	-84.41751098632814	1323.245239257813	-819.4923095703127	-83.92080688476564	1275.958374023438	-880.233581542969	156.9973449707032	1330.364990234375	-876.6960449218752	150.199935913086	1327.546508789063	-811.3518066406252	234.3067016601563	1342.359985351563	-869.001403808594	-297.1145324707032	948.7449951171877	-1147.468872070313	-304.3672180175782	965.4522705078127	-931.0673828125002	-471.7395935058595	1009.263488769531	-1044.583618164063	-473.6894836425782	978.0242309570315	-1070.460571289063	-479.8419799804689	981.2280883789065	-1013.427368164063	-364.9895935058594	781.1729736328127	-1200.159301757813	-328.8055114746094	704.5833740234376	-1193.375366210938	-279.6012268066407	712.1268920898439	-1186.979370117188	-351.8177185058594	651.8306884765626	-1172.658081054688	-330.3034362792969	494.9729003906251	-1136.738159179688	-295.2046203613282	503.1167297363282	-1023.410461425781	-300.7397460937501	356.9894409179688	-1050.107299804688	-326.8974304199219	296.8302917480469	-1110.769897460938	-297.9234008789063	302.6438598632813	-1073.126586914063	-317.7770385742188	232.2309875488282	-1031.807495117188	-383.1074218750001	106.904769897461	-1069.052734375	-356.8323974609376	124.1986770629883	-990.9920043945315	-441.8355712890626	96.9094161987305	-1021.929321289063	-240.5189971923829	51.50437164306642	-1003.216186523438	-234.8248748779297	49.2191505432129	-1041.909057617188	-258.7468261718751	43.89769363403321	-1092.255859375	-253.3646087646485	743.1076049804689	-855.1322021484377	-189.5880737304688	724.7796020507814	-865.281433105469	-167.9165496826172	746.4542846679689	-880.5782470703127	-163.0669860839844	646.3206176757814	-875.7583618164065	-129.9900054931641	595.6245117187501	-881.2623291015627	-120.7427749633789	594.8785400390626	-997.9263305664065	-20.0111141204834	508.5859375000001	-902.2114868164065	-26.46483802795411	405.1332092285157	-867.905700683594	11.45385646820069	429.4098205566407	-882.7324218750002	46.39643096923829	397.4558410644532	-916.3697509765627	86.08037567138673	248.5896148681641	-875.482360839844	85.50508117675783	267.8890380859376	-958.332458496094	42.54980850219727	200.7838134765626	-910.8131103515627	227.8032379150391	270.6079711914063	-968.8428344726565	239.3454895019532	281.1237792968751	-925.6514892578127	231.743148803711	254.4223175048829	-869.2103271484377	
195	0.97	-275.5433959960938	1638.003540039063	-1026.904663085938	-414.9463500976564	1565.17919921875	-1120.764526367188	-398.7657165527345	1569.370727539063	-969.6797485351565	-452.8439025878907	1439.55419921875	-1038.936279296875	-474.185272216797	1123.790893554688	-1051.803955078125	-318.6699523925782	1370.678955078125	-1048.675048828125	-384.5269775390626	1393.087890625	-1205.900390625	-239.9380645751954	1346.702392578125	-1290.94873046875	-204.4018249511719	1365.605834960938	-1260.1767578125	-174.8533477783203	1342.018432617188	-1307.640747070313	-125.7692108154297	1324.321166992188	-1322.574462890625	-113.8706970214844	1263.8046875	-1271.229370117188	124.2279663085938	1350.001831054688	-1296.139038085938	116.8318252563477	1348.781494140625	-1361.257568359375	208.6291046142579	1359.09228515625	-1305.588134765625	-363.0593566894532	1387.536865234375	-890.5727539062502	-220.4832000732422	1325.438720703125	-814.6756591796877	-190.8036346435547	1359.397705078125	-834.9464111328127	-150.4544830322266	1318.589599609375	-814.532653808594	-84.80181121826173	1322.93017578125	-819.9185180664065	-83.94280242919923	1276.072021484375	-880.3375244140627	156.975326538086	1330.695556640625	-876.661071777344	150.184310913086	1327.819946289063	-811.3399047851565	234.2792205810547	1342.519409179688	-869.084899902344	-296.9516601562501	948.8109130859377	-1147.509521484375	-304.2686157226563	965.454528808594	-931.1364746093752	-471.555633544922	1009.206604003906	-1044.681640625	-473.5406494140626	978.004821777344	-1070.545776367188	-479.7923583984376	981.2357177734377	-1013.48974609375	-364.8725280761719	781.2415161132815	-1200.300048828125	-328.6744689941407	704.6102294921876	-1193.390991210938	-279.5869140625001	712.1338500976564	-1187.070556640625	-351.6918640136719	651.8765258789064	-1172.663330078125	-330.2714843750001	495.023162841797	-1136.739868164063	-295.2117919921876	503.1347961425782	-1023.441101074219	-300.7404479980469	357.0061340332032	-1050.078857421875	-326.8797912597657	296.8669738769532	-1110.76416015625	-297.8457031250001	302.5879211425782	-1073.261840820313	-317.7747497558594	232.2173767089844	-1031.846557617188	-383.0964660644532	106.9000473022461	-1069.057373046875	-356.8542175292969	124.2045059204102	-991.018981933594	-442.0449218750001	96.96901702880862	-1022.016540527344	-240.5093231201172	51.55530929565431	-1003.162658691406	-234.7941894531251	49.20484924316408	-1041.881469726563	-258.7474670410157	43.89404678344727	-1092.251342773438	-253.3057250976563	743.0830688476564	-855.2066650390627	-189.5084381103516	724.7484741210939	-865.2614746093752	-167.8262634277344	746.4534912109376	-880.6138305664065	-163.034408569336	646.2625732421876	-875.7419433593752	-129.9453125	595.5119018554689	-881.3259887695315	-120.6047973632813	594.8441772460939	-997.9515380859377	-19.8934497833252	508.4689025878907	-902.2128906250002	-26.42555618286134	405.0586853027345	-867.9471435546877	11.46864223480225	429.311981201172	-882.7258300781252	46.59277725219727	397.4581909179689	-916.3477172851565	86.21957397460939	248.5474395751954	-875.5598754882815	85.50392913818361	267.9123229980469	-958.4747314453127	42.71612167358399	200.8048553466797	-910.9255981445315	227.9743041992188	270.6349792480469	-968.835144042969	239.5619506835938	281.1505432128907	-925.5516357421877	231.8358154296876	254.3537902832032	-869.1884765625002	
196	0.975	-275.5352172851563	1637.959350585938	-1026.805053710938	-415.0105590820314	1565.111328125	-1120.706420898438	-398.8312072753907	1569.3896484375	-969.6708984375002	-452.8579406738282	1439.561401367188	-1038.901611328125	-474.1235351562501	1123.819702148438	-1051.8330078125	-318.7053527832032	1370.69677734375	-1048.668579101563	-384.388641357422	1393.119873046875	-1205.830078125	-239.8164520263672	1346.80517578125	-1290.868896484375	-204.3783264160157	1365.770751953125	-1260.048217773438	-174.8218688964844	1342.16796875	-1307.58642578125	-125.6458206176758	1324.485595703125	-1322.432373046875	-113.7303314208985	1263.98974609375	-1271.184936523438	124.3546447753907	1350.170043945313	-1296.13818359375	116.8667602539063	1349.0224609375	-1361.193481445313	208.7740325927735	1359.025024414063	-1305.603881835938	-363.1260375976563	1387.56005859375	-890.603698730469	-220.5324859619141	1325.515625	-814.6690063476565	-190.9028472900391	1359.469604492188	-834.9812622070315	-150.472152709961	1318.730590820313	-814.4800415039065	-84.8549041748047	1323.087158203125	-819.881530761719	-83.95998382568361	1276.228881835938	-880.3043212890627	156.8753051757813	1331.0107421875	-876.7355957031252	150.1693725585938	1328.24365234375	-811.323669433594	234.3340606689454	1342.762329101563	-869.099060058594	-296.8273925781251	948.8442993164065	-1147.584716796875	-304.1037902832032	965.4419555664065	-931.150329589844	-471.5058898925782	1009.178894042969	-1044.710693359375	-473.349578857422	977.9700927734377	-1070.67041015625	-479.6142883300782	981.1757812500002	-1013.55517578125	-364.6955566406251	781.1799316406252	-1200.182861328125	-328.5459289550782	704.5975341796876	-1193.326416015625	-279.2637329101563	712.0385742187501	-1187.042602539063	-351.6072387695313	651.8925781250001	-1172.707153320313	-330.3619995117188	495.0304565429689	-1136.666625976563	-295.2028808593751	503.1385803222657	-1023.407653808594	-300.8267822265626	357.0089111328126	-1050.039428710938	-326.8636779785157	296.8702392578126	-1110.74609375	-297.9316406250001	302.6977844238282	-1073.177490234375	-317.7968139648438	232.2816314697266	-1031.800170898438	-383.1031188964844	106.9074935913086	-1069.072143554688	-356.8452758789063	124.2057495117188	-990.9824218750002	-441.8281860351564	96.91966247558597	-1021.936645507813	-240.5455780029297	51.48176574707033	-1003.207702636719	-234.7423248291016	49.18349075317384	-1041.918823242188	-258.7315673828126	43.88297653198243	-1092.247680664063	-253.2450408935547	743.0180053710939	-855.2654418945315	-189.4700622558594	724.6419067382814	-865.3706054687502	-167.7790222167969	746.4138183593751	-880.5523071289065	-162.9668273925782	646.1956176757814	-875.8309326171877	-129.9451141357422	595.4351196289064	-881.3813476562502	-120.4385986328125	594.8099975585939	-997.9995117187502	-19.92074584960938	508.4932250976564	-902.1839599609377	-26.31929397583009	405.0153198242189	-867.997741699219	11.55569839477539	429.2543029785157	-882.7595214843752	46.71685791015626	397.4241333007814	-916.317077636719	86.40155029296876	248.4812469482422	-875.563659667969	85.93697357177736	268.0180969238282	-958.3513183593752	42.9123878479004	200.7897186279297	-911.0490722656252	228.0916137695313	270.6902160644532	-968.7786254882815	239.7552032470704	281.1164245605469	-925.4873046875002	231.957260131836	254.2677612304688	-869.1406860351565	
197	0.98	-275.5989685058594	1637.899047851563	-1026.762939453125	-415.2373046875001	1565.311889648438	-1120.678344726563	-398.9662475585939	1569.386108398438	-969.6419067382815	-452.9436035156251	1439.538208007813	-1038.953735351563	-474.0030212402345	1123.782470703125	-1051.87451171875	-318.7046203613282	1370.769897460938	-1048.655883789063	-384.5374450683595	1393.133422851563	-1205.932006835938	-239.7436065673829	1346.968139648438	-1290.829711914063	-204.426010131836	1365.956176757813	-1260.01611328125	-174.7520294189453	1342.282470703125	-1307.52490234375	-125.5952072143555	1324.63818359375	-1322.377197265625	-113.6418533325196	1264.11181640625	-1271.109985351563	124.4656295776367	1350.350952148438	-1296.137939453125	116.8772277832032	1349.22314453125	-1361.209838867188	208.8960876464844	1358.955688476563	-1305.604370117188	-363.2409973144532	1387.581909179688	-890.6182250976565	-220.5770568847657	1325.63818359375	-814.660339355469	-191.0285949707032	1359.51318359375	-835.0148925781252	-150.5489349365235	1318.817993164063	-814.4866333007815	-84.89038085937501	1323.204467773438	-819.8587036132815	-84.01586151123048	1276.371826171875	-880.2137451171877	156.730697631836	1331.348876953125	-876.7973632812502	150.1096343994141	1328.526733398438	-811.4841308593752	234.2673034667969	1342.90576171875	-869.0881958007815	-296.7031250000001	948.8884887695315	-1147.664306640625	-303.9886474609376	965.3911132812502	-931.1630859375002	-471.2758178710939	1009.110473632813	-1044.78759765625	-473.1556396484376	977.938171386719	-1070.684814453125	-479.4917907714845	981.1909790039065	-1013.641662597656	-364.6352844238282	781.184997558594	-1200.301391601563	-328.4176635742188	704.5354614257814	-1193.411743164063	-279.2768859863282	712.0089111328126	-1187.147705078125	-351.6203002929688	651.9435424804689	-1172.671752929688	-330.3081665039063	495.040496826172	-1136.66650390625	-295.1682434082032	503.144256591797	-1023.372680664063	-300.8759155273438	356.9631042480469	-1049.986206054688	-326.8599243164063	296.8838195800782	-1110.725708007813	-297.8805236816407	302.7176818847657	-1073.121826171875	-317.7760314941407	232.2279052734376	-1031.853393554688	-383.0570373535157	106.9113693237305	-1069.047241210938	-356.8395080566407	124.2178649902344	-991.0043945312502	-442.0375061035157	96.98688507080081	-1021.991516113281	-240.5501861572266	51.49913787841798	-1003.209106445313	-234.7962646484376	49.20724105834962	-1041.944946289063	-258.7126770019532	43.90026855468751	-1092.22314453125	-253.1665649414063	742.9926147460939	-855.336853027344	-189.3739166259766	724.5962524414064	-865.3796997070315	-167.6835327148438	746.3889160156251	-880.6076660156252	-162.9260559082032	646.1224975585939	-875.8970336914065	-129.8559265136719	595.3773803710939	-881.3860473632815	-120.1105651855469	594.7479248046876	-997.9591064453127	-19.83144569396973	508.4277954101564	-902.1741333007815	-26.22235298156739	404.9600219726564	-868.0467529296877	11.75500583648682	429.1640625000001	-882.7113037109377	46.84141921997071	397.4342651367189	-916.3223266601565	86.54763793945314	248.4444122314454	-875.6279296875002	85.88122558593751	267.9165039062501	-958.5710449218752	43.12696838378907	200.7853240966797	-911.166687011719	228.3392486572266	270.7265930175782	-968.7673950195315	239.9647369384766	281.1118774414063	-925.4371337890627	232.1354064941407	254.2475738525391	-869.069274902344	
